<svg xmlns="http://www.w3.org/2000/svg" viewBox="0 0 485.21 420.2"><defs><style>.cls-1{fill:none;}.cls-2{fill:#34475c;}.cls-3{fill:#489f78;}</style></defs><title>logo_vue_cool_webpack</title><g id="Camada_2" data-name="Camada 2"><g id="Camada_1-2" data-name="Camada 1"><polygon class="cls-1" points="288.71 285.86 196.5 285.86 141.07 285.86 95.26 365.2 196.5 365.2 288.71 365.2 389.94 365.2 344.13 285.86 288.71 285.86"/><path class="cls-2" d="M242.6,148.36a55,55,0,0,1,47.63,27.5h53.9L242.6,0,141.07,175.86H195A55,55,0,0,1,242.6,148.36Z"/><path class="cls-3" d="M453.45,365.2l-45.81-79.34-31.75-55H290.23a55,55,0,0,1-95.25,0H109.32l-31.76,55L31.75,365.2,0,420.2H485.21Zm-164.74,0H95.26l45.81-79.34H344.14L390,365.2Z"/><circle class="cls-2" cx="242.6" cy="203.36" r="34.17"/></g></g></svg>